{
	"asset":{
		"version":"2.0",
		"generator":""
	},
	"scenes":[{
		"nodes":[0]
	}],
	"nodes":[{
		"name":"p.2",
		"mesh":0,
		"translation":[-0.2077312469482422,
		-0.02169336937367916,
		-0.004807889461517334],
		"rotation":[-0.06593190133571625,
		-0.02508595399558544,
		-0.005009384360164404,
		0.9974961876869202],
		"scale":[1.0,
		1.0,
		1.0]
	}],
	"meshes":[{
		"name":"p.2",
		"primitives":[{
			"attributes":{
				"POSITION":1,
				"NORMAL":2,
				"TEXCOORD_0":3
			},
			"indices":0,
			"material":0
		}]
	}],
	"accessors":[{
		"bufferView":0,
		"type":"SCALAR",
		"componentType":5123,
		"count":31590,
		"byteOffset":0,
		"min":[0],
		"max":[5264]
	},
	{
		"bufferView":1,
		"type":"VEC3",
		"componentType":5126,
		"count":5265,
		"byteOffset":0,
		"min":[-0.08092587441205979,
		-0.5391324162483215,
		-0.091140516102314],
		"max":[0.50994873046875,
		0.39154085516929629,
		0.0911538377404213]
	},
	{
		"bufferView":1,
		"type":"VEC3",
		"componentType":5126,
		"count":5265,
		"byteOffset":12,
		"min":[-1.0,
		-0.9998397827148438,
		-0.9999982118606567],
		"max":[0.9999341368675232,
		0.9999995231628418,
		0.9999922513961792]
	},
	{
		"bufferView":1,
		"type":"VEC2",
		"componentType":5126,
		"count":5265,
		"byteOffset":24,
		"min":[0.0058050695806741718,
		0.0074258772656321529],
		"max":[0.9948282241821289,
		0.9451612234115601]
	}],
	"bufferViews":[{
		"byteLength":63180,
		"buffer":0,
		"byteOffset":0,
		"target":34963
	},
	{
		"byteLength":168480,
		"buffer":0,
		"byteOffset":63180,
		"target":34962,
		"byteStride":32
	}],
	"buffers":[{
		"uri":"data:application/octet-stream;base64,",
		"byteLength":231660
	}],
	"materials":[{
		"pbrMetallicRoughness":{
			"baseColorFactor":[1.0,
			1.0,
			1.0,
			1.0],
			"metallicFactor":1.0,
			"roughnessFactor":1.0
		},
		"emissiveFactor":[0.0,
		0.0,
		0.0],
		"alphaMode":"OPAQUE",
		"doubleSided":true,
		"name":""
	}]
}